<?xml version="1.0" encoding="UTF-8" standalone="no"?>
<svg
   width="118"
   height="32"
   viewBox="0 0 118 32"
   fill="none"
   version="1.1"
   id="svg15"
   sodipodi:docname="bigeye.svg"
   inkscape:version="1.3.2 (091e20e, 2023-11-25, custom)"
   xmlns:inkscape="http://www.inkscape.org/namespaces/inkscape"
   xmlns:sodipodi="http://sodipodi.sourceforge.net/DTD/sodipodi-0.dtd"
   xmlns="http://www.w3.org/2000/svg"
   xmlns:svg="http://www.w3.org/2000/svg">
  <defs
     id="defs15" />
  <sodipodi:namedview
     id="namedview15"
     pagecolor="#ffffff"
     bordercolor="#000000"
     borderopacity="0.25"
     inkscape:showpageshadow="2"
     inkscape:pageopacity="0.0"
     inkscape:pagecheckerboard="0"
     inkscape:deskcolor="#d1d1d1"
     inkscape:zoom="11.754237"
     inkscape:cx="63.849315"
     inkscape:cy="16.03677"
     inkscape:window-width="2234"
     inkscape:window-height="1237"
     inkscape:window-x="233"
     inkscape:window-y="221"
     inkscape:window-maximized="0"
     inkscape:current-layer="svg15" />
  <path
     d="M51.4069 15.399C51.2506 15.2959 51.242 15.0616 51.3893 14.946C52.471 14.0979 53.1258 12.854 53.1258 11.3379C53.1258 8.42868 50.5682 6.5752 47.0574 6.5752H40.309C40.1709 6.5752 40.059 6.68712 40.059 6.8252V25.2354C40.059 25.3735 40.1709 25.4854 40.309 25.4854H47.7084C51.289 25.4854 53.7768 23.3035 53.7768 19.925C53.7552 17.9433 52.8723 16.3658 51.4069 15.399ZM42.9653 9.49984C42.9653 9.36177 43.0772 9.24984 43.2153 9.24984H47.0574C48.9872 9.24984 50.2427 10.1649 50.2427 11.8306C50.2427 13.4964 48.9872 14.4114 47.0574 14.4114H43.2153C43.0772 14.4114 42.9653 14.2995 42.9653 14.1614V9.49984ZM47.6852 22.8108H43.2153C43.0772 22.8108 42.9653 22.6988 42.9653 22.5608V17.3361C42.9653 17.198 43.0772 17.0861 43.2153 17.0861H47.6852C49.6149 17.0861 50.8705 18.0715 50.8705 19.9484C50.8705 21.8254 49.6149 22.8108 47.6852 22.8108Z"
     fill="#0C0C0C"
     id="path1"
     style="fill:#b5b5b5;fill-opacity:1" />
  <path
     d="M57.4779 11.3391H55.1878C55.0497 11.3391 54.9378 11.451 54.9378 11.5891V25.2131C54.9378 25.3512 55.0497 25.4631 55.1878 25.4631H57.4779C57.6159 25.4631 57.7279 25.3512 57.7279 25.2131V11.5891C57.7279 11.451 57.6159 11.3391 57.4779 11.3391Z"
     fill="#0C0C0C"
     id="path2"
     style="fill:#b5b5b5;fill-opacity:1" />
  <path
     d="M56.3331 6.57617C55.4495 6.57617 54.7288 7.30349 54.7288 8.19504C54.7288 9.08659 55.4495 9.8139 56.3331 9.8139C57.2166 9.8139 57.9373 9.08659 57.9373 8.19504C57.9373 7.30349 57.2166 6.57617 56.3331 6.57617Z"
     fill="#0C0C0C"
     id="path3"
     style="fill:#b5b5b5;fill-opacity:1" />
  <path
     d="M70.6616 12.7223C70.6573 12.7223 70.6532 12.7206 70.6501 12.7177C69.5344 11.6414 68.0017 11.0565 66.1675 11.0565C61.9127 11.0565 58.8902 13.9189 58.8902 17.9074C58.8902 21.9193 61.9127 24.7582 66.1675 24.7582C67.9363 24.7582 69.4396 24.2003 70.5698 23.1497C70.6019 23.1198 70.6549 23.1424 70.6549 23.1863C70.6549 26.0721 68.9111 27.949 66.2373 27.949C64.1932 27.949 62.3661 26.876 62.014 24.8146C61.9927 24.6895 61.8867 24.594 61.7598 24.594H59.3942C59.248 24.594 59.1326 24.7195 59.1503 24.8646C59.5769 28.3659 62.5644 30.5298 66.2373 30.5298C70.6084 30.5298 73.4682 27.5033 73.4682 23.1863V11.5881C73.4682 11.45 73.3563 11.3381 73.2182 11.3381H70.9281C70.7901 11.3381 70.6781 11.45 70.6781 11.5881V12.7058C70.6781 12.7149 70.6707 12.7223 70.6616 12.7223ZM66.1908 22.1774C63.5402 22.1774 61.7035 20.4882 61.7035 17.9074C61.7035 15.3735 63.517 13.6139 66.1908 13.6139C68.8879 13.6139 70.6781 15.3735 70.6781 17.9074C70.6549 20.4882 68.8646 22.1774 66.1908 22.1774Z"
     fill="#0C0C0C"
     id="path4"
     style="fill:#b5b5b5;fill-opacity:1" />
  <path
     d="M81.9086 11.0565C77.6537 11.0565 74.6312 14.1066 74.6312 18.4001C74.6312 22.717 77.6537 25.7436 81.9086 25.7436C84.7974 25.7436 87.3252 24.372 88.2943 22.0589C88.3605 21.9007 88.2403 21.7316 88.0688 21.7316H85.4548C85.3742 21.7316 85.299 21.7709 85.2497 21.8347C84.4574 22.8608 83.2593 23.2567 81.9086 23.2567C79.6833 23.2567 78.0543 21.9027 77.5721 19.7706C77.5379 19.6194 77.6559 19.4793 77.8109 19.4793H88.8759C89.0004 19.4793 89.1063 19.3877 89.1221 19.2642C89.1571 18.9914 89.186 18.6958 89.186 18.4001C89.186 14.1066 86.1634 11.0565 81.9086 11.0565ZM77.8943 17.0627C77.7348 17.0627 77.6159 16.9149 77.6587 16.7613C78.2063 14.7983 79.7845 13.5435 81.9318 13.5435C84.0791 13.5435 85.6573 14.7983 86.2049 16.7613C86.2478 16.9149 86.1289 17.0627 85.9693 17.0627H77.8943Z"
     fill="#0C0C0C"
     id="path5"
     style="fill:#b5b5b5;fill-opacity:1" />
  <path
     d="M99.4023 11.3391C99.2987 11.3391 99.2058 11.4031 99.1688 11.4999L95.4647 21.192C95.3828 21.4064 95.0796 21.4064 94.9977 21.192L91.2935 11.4999C91.2565 11.4031 91.1636 11.3391 91.06 11.3391H88.5993C88.4232 11.3391 88.3023 11.5164 88.3666 11.6804L93.7073 25.3014C93.7304 25.3601 93.7303 25.4254 93.7073 25.484L91.9706 29.908C91.9062 30.072 92.0271 30.2493 92.2033 30.2493H94.6422C94.745 30.2493 94.8374 30.1864 94.8749 30.0906L102.096 11.6804C102.16 11.5164 102.039 11.3391 101.863 11.3391H99.4023Z"
     fill="#0C0C0C"
     id="path6"
     style="fill:#b5b5b5;fill-opacity:1" />
  <path
     d="M115.855 18.4001C115.855 14.1066 112.832 11.0565 108.578 11.0565C104.323 11.0565 101.3 14.1066 101.3 18.4001C101.3 22.717 104.323 25.7436 108.578 25.7436C111.466 25.7436 113.994 24.372 114.963 22.0589C115.03 21.9007 114.909 21.7316 114.738 21.7316H112.101C112.02 21.7316 111.945 21.7709 111.895 21.8347C111.103 22.8608 109.905 23.2567 108.554 23.2567C106.329 23.2567 104.7 21.9027 104.218 19.7706C104.184 19.6194 104.302 19.4793 104.457 19.4793H115.533C115.653 19.4793 115.756 19.3951 115.776 19.2774C115.824 18.9862 115.855 18.6854 115.855 18.4001ZM104.54 17.0627C104.381 17.0627 104.262 16.9149 104.304 16.7613C104.852 14.7983 106.43 13.5435 108.578 13.5435C110.725 13.5435 112.303 14.7983 112.851 16.7613C112.894 16.9149 112.775 17.0627 112.615 17.0627H104.54Z"
     fill="#0C0C0C"
     id="path7"
     style="fill:#b5b5b5;fill-opacity:1" />
  <path
     d="M20.6032 8.12207H11.3148C11.1767 8.12207 11.0648 8.234 11.0648 8.37207V10.711C11.0648 10.849 11.1767 10.961 11.3148 10.961H20.6032C20.7413 10.961 20.8532 10.849 20.8532 10.711V8.37207C20.8532 8.234 20.7413 8.12207 20.6032 8.12207Z"
     fill="#0C0C0C"
     id="path8"
     style="fill:#b5b5b5;fill-opacity:1" />
  <path
     d="M20.6032 21.0507H11.3148C11.1767 21.0507 11.0648 21.1626 11.0648 21.3007V23.6395C11.0648 23.7776 11.1767 23.8895 11.3148 23.8895H20.6032C20.7413 23.8895 20.8532 23.7776 20.8532 23.6395V21.3007C20.8532 21.1626 20.7413 21.0507 20.6032 21.0507Z"
     fill="#0C0C0C"
     id="path9"
     style="fill:#b5b5b5;fill-opacity:1" />
  <path
     d="M23.347 11.0558H21.0337C20.8956 11.0558 20.7837 11.1677 20.7837 11.3058V20.6832C20.7837 20.8213 20.8956 20.9332 21.0337 20.9332H23.347C23.4851 20.9332 23.597 20.8213 23.597 20.6832V11.3058C23.597 11.1677 23.4851 11.0558 23.347 11.0558Z"
     fill="#0C0C0C"
     id="path10"
     style="fill:#b5b5b5;fill-opacity:1" />
  <path
     d="M10.6758 11.0558H8.36246C8.22439 11.0558 8.11246 11.1677 8.11246 11.3058V20.6832C8.11246 20.8213 8.22439 20.9332 8.36246 20.9332H10.6758C10.8138 20.9332 10.9258 20.8213 10.9258 20.6832V11.3058C10.9258 11.1677 10.8138 11.0558 10.6758 11.0558Z"
     fill="#0C0C0C"
     id="path11"
     style="fill:#b5b5b5;fill-opacity:1" />
  <path
     d="M18.4395 0.179114L16.8022 1.83134C16.705 1.92941 16.705 2.08841 16.8022 2.18649L29.5368 15.0369C29.634 15.1349 29.7915 15.1349 29.8887 15.0369L31.5261 13.3846C31.6232 13.2866 31.6232 13.1276 31.5261 13.0295L18.7915 0.179114C18.6943 0.081042 18.5367 0.0810419 18.4395 0.179114Z"
     fill="#0C0C0C"
     id="path12"
     style="fill:#b5b5b5;fill-opacity:1" />
  <path
     d="M1.82491 16.9656L0.187572 18.6178C0.0903834 18.7159 0.0903831 18.8749 0.187571 18.973L12.9222 31.8234C13.0194 31.9214 13.1769 31.9214 13.2741 31.8234L14.9115 30.1711C15.0087 30.0731 15.0087 29.9141 14.9115 29.816L2.17686 16.9656C2.07967 16.8675 1.9221 16.8675 1.82491 16.9656Z"
     fill="#0C0C0C"
     id="path13"
     style="fill:#b5b5b5;fill-opacity:1" />
  <path
     d="M29.5484 16.955L16.8138 29.8053C16.7166 29.9034 16.7166 30.0624 16.8138 30.1605L18.4511 31.8127C18.5483 31.9108 18.7059 31.9108 18.8031 31.8127L31.5377 18.9623C31.6349 18.8643 31.6349 18.7053 31.5377 18.6072L29.9004 16.955C29.8032 16.8569 29.6456 16.8569 29.5484 16.955Z"
     fill="#0C0C0C"
     id="path14"
     style="fill:#b5b5b5;fill-opacity:1" />
  <path
     d="M12.9106 0.18787L0.175975 13.0382C0.0787867 13.1363 0.0787867 13.2953 0.175975 13.3934L1.81331 15.0456C1.9105 15.1437 2.06807 15.1437 2.16526 15.0456L14.8999 2.19524C14.9971 2.09717 14.9971 1.93817 14.8999 1.84009L13.2625 0.18787C13.1653 0.0897985 13.0078 0.0897972 12.9106 0.18787Z"
     fill="#0C0C0C"
     id="path15"
     style="fill:#b5b5b5;fill-opacity:1" />
</svg>
