<?xml version="1.0" encoding="UTF-8" standalone="no"?>
<svg
   height="800"
   width="1200"
   viewBox="-122.61315 -82.9955 1062.6473 497.973"
   version="1.1"
   id="svg3"
   sodipodi:docname="ikea.svg"
   inkscape:version="1.3.2 (091e20e, 2023-11-25, custom)"
   xmlns:inkscape="http://www.inkscape.org/namespaces/inkscape"
   xmlns:sodipodi="http://sodipodi.sourceforge.net/DTD/sodipodi-0.dtd"
   xmlns="http://www.w3.org/2000/svg"
   xmlns:svg="http://www.w3.org/2000/svg">
  <defs
     id="defs3" />
  <sodipodi:namedview
     id="namedview3"
     pagecolor="#ffffff"
     bordercolor="#000000"
     borderopacity="0.25"
     inkscape:showpageshadow="2"
     inkscape:pageopacity="0.0"
     inkscape:pagecheckerboard="0"
     inkscape:deskcolor="#d1d1d1"
     inkscape:zoom="1.07625"
     inkscape:cx="600.23229"
     inkscape:cy="400"
     inkscape:window-width="1817"
     inkscape:window-height="1237"
     inkscape:window-x="520"
     inkscape:window-y="170"
     inkscape:window-maximized="0"
     inkscape:current-layer="svg3" />
  <path
     id="path1"
     style="fill:#b5b5b5;fill-opacity:1"
     class="st0"
     d="M -0.00053217513 0.00078731185 L -0.00053217513 331.98121 L 817.30392 331.98121 L 817.42153 331.98121 L 817.42153 0.00078731185 L -0.00053217513 0.00078731185 z M 408.7105 19.093501 C 636.78727 19.093501 801.37286 85.74808 801.37286 165.991 C 801.37286 246.23392 636.90327 312.8885 408.7105 312.8885 C 180.51673 312.8885 15.930529 246.23392 15.930529 165.991 C 15.930529 85.74808 180.63473 19.093501 408.7105 19.093501 z " />
  <path
     d="M276.34 102.148c-1.758 3.515-1.758 6.912-1.758 10.426v43.929s23.546-30.575 28.934-37.838c4.1-5.388 9.138-13.002 9.138-16.517h76.845c-5.271 3.515-11.128 9.84-15.931 15.697-4.217 5.155-28.115 34.323-28.115 34.323s35.495 54.003 40.063 60.914c2.577 3.749 5.389 7.263 8.669 10.426h-88.443c0-3.514-3.397-10.66-7.146-16.283-3.748-5.623-24.014-36.431-24.014-36.431v42.288c0 3.515 0 6.912 1.757 10.426h-73.682c1.757-3.514 1.757-6.911 1.757-10.426V112.574c0-3.514 0-6.911-1.757-10.426zm272.824 0h-142.21c1.756 3.515 1.756 6.912 1.756 10.426v100.508c0 3.515 0 6.912-1.757 10.426h142.211v-33.62c-3.514 1.757-6.911 1.757-10.425 1.757h-59.86v-15.931h57.517V150.06h-57.517v-16.05h59.86c3.514 0 6.911 0 10.425 1.64zm197.034 110.934c1.172 3.866 3.163 7.38 5.74 10.426h-77.08c.352-3.514-.937-6.911-2.342-10.426 0 0-1.172-2.811-2.812-6.911l-.703-1.757h-44.397l-.703 1.874s-1.288 3.397-2.46 6.912c-1.171 3.514-2.46 6.91-1.991 10.425h-60.797a30.721 30.721 0 005.506-10.425l36.431-100.51c1.289-3.514 2.577-6.911 2.109-10.426h102.734c-.937 3.515.937 6.912 2.225 10.426 3.046 7.614 35.963 93.597 38.54 100.391m-86.92-34.322l-10.777-28.115c-.937-2.577-1.757-5.271-2.342-7.965a46.958 46.958 0 01-2.109 7.965c-.352 1.172-4.92 13.472-10.191 28.115zm-493.287-66.186c0-3.514 0-6.911 1.757-10.426H87.623c1.757 3.515 1.757 6.912 1.757 10.426v100.508c0 3.515 0 6.912-1.757 10.426h80.125c-1.757-3.514-1.757-6.911-1.757-10.426zm555.607-.82c-.234 8.786 6.677 16.166 15.58 16.4 8.786.234 16.166-6.677 16.4-15.58v-.82c.118-8.669-6.677-15.814-15.345-15.931h-.586a15.284 15.284 0 00-15.932 14.877c-.234.351-.234.703-.117 1.054m28.7 0c.234 7.029-5.388 13.003-12.417 13.12-7.029.234-13.003-5.389-13.12-12.417v-.82c-.234-6.794 5.037-12.534 11.831-12.769h.938c6.911-.117 12.651 5.389 12.768 12.3v.586m-4.92 9.606h-3.163l-3.748-6.795h-4.1v6.795h-2.812v-19.212h7.146c3.397.118 5.974 2.812 5.974 6.209 0 2.343-1.288 4.451-3.397 5.623zm-7.146-9.606c1.875.117 3.515-1.289 3.515-3.163 0-1.874-1.289-3.514-3.163-3.514h-4.217v6.794h3.865"
     class="st0"
     fill="#0058a3"
     id="path3"
     style="fill:#b5b5b5;fill-opacity:1" />
</svg>
