<?xml version="1.0" encoding="UTF-8" standalone="no"?>
<svg
   height="40.613075"
   width="99.999954"
   viewBox="-122.61315 -82.9955 88.553901 25.280269"
   version="1.1"
   id="svg3"
   sodipodi:docname="ikea.svg"
   inkscape:version="1.3.2 (091e20e, 2023-11-25, custom)"
   xmlns:inkscape="http://www.inkscape.org/namespaces/inkscape"
   xmlns:sodipodi="http://sodipodi.sourceforge.net/DTD/sodipodi-0.dtd"
   xmlns="http://www.w3.org/2000/svg"
   xmlns:svg="http://www.w3.org/2000/svg">
  <defs
     id="defs3" />
  <sodipodi:namedview
     id="namedview3"
     pagecolor="#ffffff"
     bordercolor="#000000"
     borderopacity="0.25"
     inkscape:showpageshadow="2"
     inkscape:pageopacity="0.0"
     inkscape:pagecheckerboard="0"
     inkscape:deskcolor="#d1d1d1"
     inkscape:zoom="6.0881894"
     inkscape:cx="45.415801"
     inkscape:cy="11.908302"
     inkscape:window-width="1817"
     inkscape:window-height="1237"
     inkscape:window-x="520"
     inkscape:window-y="164"
     inkscape:window-maximized="0"
     inkscape:current-layer="svg3" />
  <path
     id="path1"
     style="fill:#b5b5b5;fill-opacity:1;stroke-width:0.108333"
     class="st0"
     d="m -122.61315,-88.337608 v 35.96448 h 88.5412 0.0127 v -35.96448 z m 44.27697,2.068369 c 24.70828,0 42.53837,7.220905 42.53837,15.913871 0,8.692965 -17.81752,15.913866 -42.53837,15.913866 -24.72096,0 -42.55111,-7.220901 -42.55111,-15.913866 0,-8.692966 17.84293,-15.913871 42.55111,-15.913871 z" />
  <path
     id="path3"
     style="fill:#b5b5b5;fill-opacity:1;stroke-width:0.108333"
     class="st0"
     d="m -113.12068,-77.271865 c 0.19035,0.38079 0.19037,0.74878 0.19037,1.12946 v 10.888424 c 0,0.380789 -2e-5,0.748789 -0.19037,1.129469 h 8.68028 c -0.19034,-0.38068 -0.19037,-0.74868 -0.19037,-1.129469 v -10.888424 c 0,-0.38068 3e-5,-0.74867 0.19037,-1.12946 z m 12.46215,1.9e-4 c 0.19034,0.38079 0.19018,0.74878 0.19018,1.12946 v 10.888424 c 0,0.380789 1.6e-4,0.748779 -0.19018,1.129469 h 7.98214 c -0.19034,-0.38069 -0.19037,-0.74868 -0.19037,-1.129469 v -4.581188 c 0,0 2.19541,3.337408 2.60145,3.946568 0.40614,0.60916 0.77421,1.383399 0.77421,1.764089 h 9.58134 c -0.35533,-0.34266 -0.65993,-0.72333 -0.9391,-1.129469 -0.49487,-0.74869 -4.34023,-6.599157 -4.34023,-6.599157 0,0 2.58904,-3.159708 3.04588,-3.718167 0.52032,-0.6345 1.15484,-1.31977 1.72586,-1.70056 h -8.32502 c 0,0.38079 -0.54571,1.20568 -0.98988,1.789379 -0.5837,0.78682 -3.13451,4.099078 -3.13451,4.099078 v -4.758997 c 0,-0.38068 -8e-5,-0.74867 0.19037,-1.12946 z m 22.13212,0 c 0.19023,0.38079 0.19018,0.74878 0.19018,1.12946 v 10.888424 c 0,0.380789 -3e-5,0.748779 -0.19037,1.129469 h 15.4061 V -67.7666 c -0.38068,0.19034 -0.74859,0.19036 -1.12927,0.19036 h -6.48487 v -1.725859 h 6.23098 v -2.779068 h -6.23098 v -1.738789 h 6.48487 c 0.38068,0 0.74859,-4e-5 1.12927,0.177629 v -3.629348 z m 21.20557,0.0125 c 0.0507,0.38079 -0.0888,0.74878 -0.2284,1.12946 l -3.94676,10.888614 a 3.328104,3.328104 0 0 1 -0.5964,1.129279 h 6.58624 c -0.0508,-0.38079 0.089,-0.7486 0.21585,-1.129279 0.12696,-0.38079 0.26644,-0.74873 0.26644,-0.74873 l 0.0761,-0.20311 h 4.80978 l 0.0761,0.19037 c 0.17767,0.44416 0.30466,0.74873 0.30466,0.74873 0.15221,0.380789 0.29184,0.748779 0.2537,1.129459 h 8.35032 c -0.27917,-0.32998 -0.49491,-0.71065 -0.62188,-1.129459 v -1.9e-4 c -0.27917,-0.73602 -3.84518,-10.050835 -4.17516,-10.875684 -0.13953,-0.38068 -0.34246,-0.74867 -0.24095,-1.12946 z m 4.70823,4.378258 c 0.0634,0.29185 0.15219,0.58367 0.25369,0.86284 l 1.16751,3.045878 h -2.75378 c 0.57103,-1.586319 1.06604,-2.918909 1.10417,-3.045878 a 5.08711,5.08711 0 0 0 0.22841,-0.86284 z" />
</svg>
