<?xml version="1.0" encoding="UTF-8" standalone="no"?>
<svg
   height="55.76923"
   width="841.66669"
   version="1.0"
   viewBox="-54 -11.25 328.25001 4.7055288"
   id="svg2"
   sodipodi:docname="jpmc.svg"
   inkscape:version="1.3.2 (091e20e, 2023-11-25, custom)"
   xmlns:inkscape="http://www.inkscape.org/namespaces/inkscape"
   xmlns:sodipodi="http://sodipodi.sourceforge.net/DTD/sodipodi-0.dtd"
   xmlns="http://www.w3.org/2000/svg"
   xmlns:svg="http://www.w3.org/2000/svg">
  <defs
     id="defs2" />
  <sodipodi:namedview
     id="namedview2"
     pagecolor="#ffffff"
     bordercolor="#000000"
     borderopacity="0.25"
     inkscape:showpageshadow="2"
     inkscape:pageopacity="0.0"
     inkscape:pagecheckerboard="0"
     inkscape:deskcolor="#d1d1d1"
     inkscape:zoom="1.07625"
     inkscape:cx="420.44135"
     inkscape:cy="28.339141"
     inkscape:window-width="2560"
     inkscape:window-height="1417"
     inkscape:window-x="-8"
     inkscape:window-y="-8"
     inkscape:window-maximized="1"
     inkscape:current-layer="svg2" />
  <path
     d="m 211.41325,-19.353658 c -1.2685,0 -2.31375,0.4281 -3.15282,1.2813 -0.83807,0.8542 -1.24862,1.8168 -1.24862,2.9062 0,1.3825 0.61372,2.9188 1.84176,4.625 -2.03874,1.3628002 -3.4306,2.5116002 -4.15171,3.4063002 -0.7189,0.8968 -1.06132,1.9934 -1.06132,3.3124 0,1.154 0.29607,2.152 0.87403,3.03129998 0.57686,0.8805 1.29747,1.57580002 2.21635,2.06250002 0.91878,0.4867 1.89461,0.75 2.90299,0.75 2.05613,0 4.02106,-1.0397 5.86852,-3.0938 1.55358,2.0541 3.35399,3.0938 5.40033,3.0938 0.94395,0 1.77833,-0.2831 2.49724,-0.8125 0.7178,-0.5283 1.18289,-1.23400002 1.40465,-2.09380002 h -0.74918 c -0.53421,0.944 -1.29327,1.43750002 -2.27878,1.43760002 -0.7243,0 -1.38876,-0.2243 -2.02896,-0.65630002 -0.63919,-0.431 -1.5313,-1.45359998 -2.65336,-3.06249998 0.47088,-0.6267 0.9971,-1.5998 1.56077,-2.9375 0.67086,-1.6198 1.33293,-2.7273 1.96663,-3.3125 0.6348,-0.5863002 1.36629,-0.9890002 2.21635,-1.2188002 v -0.75 h -6.74255 v 0.75 c 1.65078,0.1882 2.46598,0.8605002 2.46598,2.0626002 0,0.5009 -0.1843,1.2012 -0.53072,2.0937 -0.34522,0.8936 -0.8081,1.757 -1.40465,2.5938 a 387.65048,388.0789 0 0 0 -5.27547,-7.3126002 c 3.01218,-1.517 4.49504,-3.0742 4.49504,-4.6874 0,-1.037 -0.43103,-1.8925 -1.34222,-2.5313 -0.91229,-0.6388 -1.95844,-0.9375 -3.09038,-0.9375 z m 28.65583,0.0938 c -1.83448,0 -3.52191,0.4193 -5.05692,1.2812 -1.5351,0.8619 -2.73218,2.1892 -3.58983,3.9688 -0.85655,1.7784 -1.27988,3.6728 -1.27988,5.6874002 0,3.068 0.91868,5.5415 2.77823,7.40629998 1.85844,1.86480002 4.28057,2.78120002 7.21083,2.78130002 2.77283,0 5.05201,-1.0155 6.83614,-3.0313 0.47198,0.62229998 0.78513,1.34139998 0.96773,2.1563 h 0.68674 v -7.1563 h -0.68674 c -0.12026,1.1823 -0.52302,2.421 -1.18619,3.6875 -0.66216,1.2677 -1.54938,2.15699998 -2.68453,2.68749998 -1.13844,0.53050002 -2.25191,0.78130002 -3.34011,0.78130002 -2.03435,0 -3.75145,-0.80680002 -5.11934,-2.4376 -1.36449,-1.6318 -2.02906,-3.9709 -2.02906,-7.0312 0,-3.2320002 0.62201,-5.7330002 1.87293,-7.4688002 1.25322,-1.738 2.93086,-2.5937 5.05691,-2.5937 1.73509,0 3.29926,0.5444 4.68233,1.625 1.38317,1.0806 2.29796,2.98 2.74696,5.7188 h 0.68674 l -0.18729,-7.7188 h -0.68674 c -0.0929,0.911 -0.34002,1.8064 -0.78034,2.6563 -0.60743,-0.758 -1.54799,-1.4391 -2.77823,-2.0625 -1.23234,-0.6235 -2.60612,-0.9375 -4.12044,-0.9375 z m -119.86753,0.0625 c -1.83447,0 -3.52191,0.4193 -5.05691,1.2812 -1.5362,0.8619 -2.73218,2.1892 -3.58983,3.9688 -0.85766,1.7784 -1.27979,3.6717 -1.27989,5.6874002 0,3.067 0.91868,5.5404 2.77823,7.40629998 1.85735,1.86480002 4.24721,2.78120002 7.17956,2.78130002 2.77074,0 5.05322,-0.9832 6.83625,-3 0.47408,0.62449998 0.8186,1.3403 0.9989,2.1562 h 0.68674 v -7.1875 h -0.68674 c -0.12027,1.1834 -0.52193,2.421 -1.18619,3.6875 -0.66217,1.2677 -1.54729,2.15699998 -2.68454,2.6875 -1.13844,0.5305 -2.25301,0.8125 -3.34011,0.8125 -2.03435,0 -3.75255,-0.839 -5.11934,-2.4688 -1.36679,-1.6318 -2.02896,-3.9698 -2.02905,-7.0312 0,-3.2320002 0.62091,-5.7017002 1.87293,-7.4375002 1.25211,-1.7369 2.93305,-2.625 5.05691,-2.625 1.73718,0 3.30135,0.5444 4.68232,1.625 1.38207,1.0806 2.29686,2.98 2.74697,5.7188 h 0.68674 l -0.1873,-7.6876 h -0.68674 c -0.0918,0.9111 -0.37129,1.7752 -0.8116,2.625 -0.60733,-0.758 -1.51453,-1.4401 -2.74696,-2.0625 -1.22905,-0.6234 -2.60513,-0.9375 -4.12045,-0.9375 z m -148.492194,0.0625 c -1.148231,0 -2.755354,0.0451 -4.807187,0.125 l -2.559671,0.0937 v 0.6875 h 0.374586 c 1.039052,0 1.716503,0.1008 2.029058,0.2813 0.313553,0.1815 0.502444,0.4962 0.593044,0.9687 0.0907,0.4725 0.156028,1.531 0.156128,3.1563 v 10.0000002 c 0,1.7073 -0.06543,2.8142 -0.156128,3.28119998 -0.0907,0.467 -0.286683,0.81030002 -0.62431,1.03130002 -0.337627,0.2209 -0.964434,0.3124 -1.841764,0.3124 h -0.530614 v 0.6876 h 9.395916 v -0.6876 h -0.686841 c -0.917686,0 -1.539698,-0.1009 -1.87293,-0.3437 -0.333132,-0.24170002 -0.548893,-0.62630002 -0.62431,-1.12500002 -0.07642,-0.49879998 -0.0936,-1.54399998 -0.0936,-3.15629998 v -4.3124 h 2.247516 c 2.340214,0 3.972211,-0.2155 4.900884,-0.6563 0.929673,-0.4419 1.624405,-1.0844 2.122654,-1.9375002 0.497051,-0.8542 0.749172,-1.8542 0.749172,-2.9688 0,-1.284 -0.362799,-2.3442 -1.092592,-3.1874 -0.729794,-0.8433 -1.667657,-1.4186 -2.809395,-1.75 -1.141738,-0.3315 -2.757753,-0.5 -4.869619,-0.5 z m -19.322445,0.2187 v 0.6875 h 0.468282 c 1.034657,0 1.691931,0.1008 1.997792,0.2813 0.306961,0.1804 0.529216,0.4984 0.624311,0.9687 0.09509,0.4714 0.124862,1.5331 0.124862,3.1563 v 6.9374002 c 0,2.274 -0.05794,3.9197 -0.218559,4.9063 -0.158325,0.98879998 -0.656874,1.83619998 -1.435813,2.5625 -0.779039,0.7262 -1.733484,1.0937 -2.871826,1.0938 -0.559382,0 -1.024568,-0.102 -1.404748,-0.2813 -0.377982,-0.1794 -0.561879,-0.4306 -0.561879,-0.75 0,-0.1203 0.04575,-0.2917 0.156128,-0.53130002 0.121266,-0.2701 0.187193,-0.5307 0.187193,-0.7812 0,-0.41999998 -0.138747,-0.77269998 -0.436917,-1.06249998 -0.297272,-0.291 -0.680249,-0.4375 -1.123758,-0.4375 -0.433821,0 -0.794323,0.1762 -1.092593,0.5 -0.297172,0.3237 -0.437017,0.71399998 -0.437017,1.18749998 0,0.78530002 0.419337,1.46140002 1.24862,2.03130002 0.831381,0.5687 1.988003,0.8437 3.527402,0.8437 1.369986,0 2.586341,-0.226 3.620998,-0.6875 1.034557,-0.4627 1.877725,-1.1123 2.49724,-1.96880002 0.619416,-0.85749998 0.987109,-1.75279998 1.123758,-2.65619998 0.134352,-0.9023 0.187193,-2.2105 0.187193,-3.9375 v -6.9688002 c 0,-1.6953 0.05564,-2.767 0.156128,-3.2187 0.09939,-0.4517 0.314053,-0.7734 0.62431,-0.9375 0.309158,-0.1673 0.965832,-0.25 1.966626,-0.25 h 0.499448 v -0.6875 z m 30.840916,0 v 0.6875 h 0.561979 c 1.038951,0 1.689632,0.1008 1.997792,0.2813 0.308059,0.1815 0.529215,0.4962 0.62431,0.9687 0.09609,0.4725 0.124862,1.5298 0.124862,3.1563 v 8.8750002 c 0,1.6865 -0.03486,2.8453 -0.156128,3.4687 -0.120167,0.62229998 -0.47947,1.16939998 -1.030161,1.59379998 -0.549493,0.42650002 -1.244225,0.63820002 -2.122654,0.68740002 v 0.6876 h 7.3356925 v -0.6876 c -0.9429575,-0.0601 -1.6639615,-0.3037 -2.1850855,-0.75000002 -0.523421,-0.4462 -0.837075,-0.9696 -0.936465,-1.56239998 -0.100489,-0.5929 -0.156127,-1.7076 -0.156127,-3.3438 V -16.791158 l 8.1160306,18.2813002 h 0.7180065 L 4.142313,-16.791158 v 13.0000002 c 0,1.7073 -0.029867,2.783 -0.124862,3.24999998 -0.095095,0.467 -0.3179486,0.80920002 -0.6555755,1.03130002 -0.3386257,0.2209 -0.9419589,0.3124 -1.8104991,0.3124 H 0.83336999 v 0.6876 H 10.635137 v -0.6876 H 9.7298379 c -0.9242785,0 -1.54729,-0.102 -1.8729301,-0.3437 C 7.52917,0.21824218 7.3123097,-0.13835782 7.2325978,-0.63495782 7.1516872,-1.1314578 7.1077358,-2.2156578 7.1077358,-3.8223578 V -13.822358 c 0,-1.6965 0.048946,-2.766 0.1561274,-3.2188 0.1037853,-0.4517 0.3128543,-0.7723 0.62431,-0.9375 0.3113559,-0.1652 0.9937018,-0.25 1.9977922,-0.25 h 0.7491716 v -0.6875 H 4.3295062 l -7.398024,16.9063002 -7.4917212,-16.9064002 z m 228.247753,0.3438 c 0.76595,0 1.37198,0.2595 1.84176,0.7812 0.46649,0.5228 0.71791,1.1847 0.71801,2.0313 0,1.4196 -1.06283,2.747 -3.15282,3.9687 -1.28378,-1.7642 -1.90419,-3.1637 -1.90419,-4.1875 0,-0.7416 0.22794,-1.3428 0.68674,-1.8438 0.45779,-0.4998 1.05124,-0.75 1.8105,-0.75 z m -239.454069,0.1562 c 1.859545,0 3.198665,0.3967 4.02685,1.1875 0.828085,0.7897 1.24862,2.0278 1.24862,3.7188 0,1.108 -0.236239,2.0578 -0.718006,2.8124 -0.482867,0.7547002 -1.088298,1.2304002 -1.810499,1.4688002 -0.723201,0.2362 -1.666159,0.375 -2.840661,0.375 h -1.467079 v -9.5000002 c 0.361601,-0.0405 0.879029,-0.0625 1.560775,-0.0625 z m 201.839439,3.875 c -1.19308,0 -2.15522,0.349 -2.93426,1.0938 -0.77794,0.7448 -1.18619,1.6935 -1.18619,2.8124 0,0.7340002 0.20348,1.4150002 0.56188,2.0626002 0.3584,0.6485 0.82908,1.1901 1.46718,1.5937 0.63799,0.4058 1.61531,0.867 2.87182,1.4063 1.40935,0.6026 2.37308,1.1635 2.903,1.6874 0.53101,0.5316 0.78043,1.1824 0.78043,1.9688 0,0.7788 -0.30116,1.49599998 -0.9053,2.12499998 -0.60533,0.62900002 -1.45729,0.93750002 -2.55967,0.93750002 -2.45059,0 -3.99558,-1.64970002 -4.65116,-4.9375 h -0.59304 v 5.0625 h 0.59314 c 0.12337,-0.6573 0.30507,-1.16920002 0.56188,-1.53130002 1.15153,1.31910002 2.58584,1.96880002 4.30774,1.96880002 1.49785,0 2.69382,-0.41 3.58973,-1.25 0.89591,-0.84220002 1.34232,-1.9381 1.34232,-3.2813 0,-0.8487 -0.19269,-1.6014 -0.56188,-2.25 -0.37259,-0.6474 -0.85206,-1.1335 -1.46718,-1.5 -0.61402,-0.3664 -1.61401,-0.8639 -2.96552,-1.4687 -1.41264,-0.6377 -2.36109,-1.2134 -2.90299,-1.7188 -0.55179,-0.4965002 -0.84277,-1.0939002 -0.84287,-1.8124002 0,-0.595 0.21746,-1.1543 0.65558,-1.6563 0.43921,-0.4998 1.12066,-0.75 2.06022,-0.75 0.98661,0 1.87483,0.352 2.6221,1.0313 0.75057,0.6814 1.2658,1.5956 1.56078,2.7812 h 0.49944 v -4.0938 h -0.49944 c -0.0447,0.4933 -0.23804,0.9518 -0.59315,1.375 -0.61831,-0.678 -1.22375,-1.1282 -1.8105,-1.3437 -0.58885,-0.2166 -1.23663,-0.3125 -1.90409,-0.3125 z m -153.611538,0.0313 c -2.416629,0 -4.408628,0.7207 -6.024542,2.1874 -1.615914,1.4657 -2.434809,3.4211002 -2.434809,5.8438002 0,2.485 0.810704,4.4648 2.403643,5.96879998 1.59284,1.50600002 3.631587,2.28120002 6.118239,2.28120002 2.553178,0 4.613901,-0.7752 6.180569,-2.28130002 1.56567,-1.50389998 2.341213,-3.44459998 2.341213,-5.87499998 0,-2.508 -0.831581,-4.4860002 -2.466075,-5.9374002 -1.635492,-1.4504 -3.679633,-2.1876 -6.118238,-2.1876 z m 36.241247,0 c -2.440702,0 -4.353488,0.8414 -5.774918,2.5312 -1.421429,1.6887 -2.153819,3.6619002 -2.153819,5.9063002 0,2.2684 0.761658,4.1473 2.247516,5.62499998 1.484759,1.47760002 3.346801,2.21870002 5.587625,2.21870002 1.115467,0 2.311046,-0.2589 3.620998,-0.75 0.961437,-0.361 1.748967,-0.5313 2.341113,-0.5313 0.146438,0 0.316949,-4e-4 0.499448,0.0313 v -1.6563 c 0,-1.3562 0.03966,-2.2103 0.124862,-2.5624 0.08411,-0.3511 0.264108,-0.6304 0.530713,-0.7813 0.265407,-0.151 0.782136,-0.2188 1.52951,-0.2188 v -0.5312 h -6.773814 v 0.5313 h 0.374586 c 0.621713,0 1.047143,0.0589 1.279885,0.1562 0.232743,0.0952 0.386873,0.2814 0.499448,0.5625 0.112576,0.2822 0.187294,0.8442 0.187294,1.6875 0,0.7186 -0.135351,1.31099998 -0.374587,1.78129998 -0.237038,0.4714 -0.658771,0.85930002 -1.311051,1.18740002 -0.653278,0.3304 -1.387466,0.5 -2.185085,0.5 -1.557978,0 -2.882115,-0.5582 -3.933153,-1.71870002 -1.052137,-1.15829998 -1.560775,-3.15499998 -1.560775,-5.93749998 0,-2.7902 0.56078,-4.7177002 1.654472,-5.8125002 1.093591,-1.0938 2.366684,-1.6563 3.839456,-1.6563 1.424726,0 2.623501,0.47 3.620998,1.4063 0.998597,0.9373 1.618811,2.208 1.841765,3.8125002 h 0.530614 v -5.2500002 h -0.530714 c -0.06992,0.6333 -0.241533,1.2333 -0.499448,1.7813 -1.376479,-1.539 -3.113059,-2.3126 -5.212939,-2.3126 z m 204.430371,0 c -2.41673,0 -4.40873,0.7207 -6.02464,2.1874 -1.61591,1.4657 -2.43481,3.4211002 -2.43481,5.8438002 0,2.485 0.77944,4.4648 2.37238,5.96879998 1.59294,1.50600002 3.63268,2.28120002 6.11824,2.28120002 2.55547,0 4.6139,-0.7752 6.18067,-2.28130002 1.56557,-1.50389998 2.37237,-3.44459998 2.37237,-5.87499998 0,-2.508 -0.83158,-4.4860002 -2.46607,-5.9374002 -1.63549,-1.4504 -3.68073,-2.1876 -6.11824,-2.1876 z m -101.57524,0.0312 -4.55746,10.8750002 c -0.32784,0.782 -0.5451,1.229 -0.59315,1.3438 -0.48396,1.2304 -0.87653,2.02449998 -1.21745,2.40619998 -0.34083,0.38280002 -0.86265,0.64170002 -1.56078,0.75000002 v 0.5313 h 4.71359 v -0.5313 c -0.50804,0 -0.92737,-0.131 -1.24862,-0.375 -0.31795,-0.2428 -0.46828,-0.59100002 -0.46828,-1.06250002 0,-0.4408 0.30436,-1.36769998 0.9053,-2.81249998 l 0.40585,-1 h 5.93095 l 1.21735,2.9063 c 0.35511,0.84209998 0.53071,1.33039998 0.53071,1.49999998 0,0.33140002 -0.14144,0.57590002 -0.40585,0.68740002 -0.2666,0.1116 -0.77674,0.1563 -1.52961,0.1563 v 0.5313 h 6.14951 v -0.5313 c -0.5496,-0.0536 -0.94426,-0.193 -1.21746,-0.4063 -0.27419,-0.211 -0.49375,-0.50530002 -0.65547,-0.87500002 l -0.71801,-1.62499998 -5.21294,-12.4687002 z m -122.614493,0.0625 c -0.877331,0 -2.066217,0.0281 -3.558668,0.0938 l -2.21625,0.0937 v 0.5313 h 0.249724 c 0.807408,0 1.34831,0.0798 1.59204,0.2187 0.241434,0.139 0.39826,0.388 0.468183,0.75 0.07102,0.362 0.0936,1.1572 0.0936,2.4063 v 7.7187002 c 0,1.3114 -0.02377,2.14019998 -0.0936,2.49999998 -0.06882,0.35880002 -0.240534,0.61280002 -0.499448,0.78130002 -0.257815,0.1695 -0.73279,0.25 -1.404748,0.25 h -0.499448 v 0.5312 h 7.522986 v -0.5313 h -0.749172 c -0.711214,0 -1.216955,-0.0964 -1.467178,-0.2812 -0.252321,-0.1837 -0.411346,-0.46310002 -0.468183,-0.84380002 -0.05794,-0.3773 -0.06243,-1.18009998 -0.06243,-2.40619998 v -3.4375 h 0.62431 c 0.420635,0 0.705221,0.0777 0.9053,0.2188 0.197781,0.1421 0.563677,0.5065 1.092492,1.1562 0.527717,0.6464 1.037853,1.3258 1.52961,2.0313 1.530608,2.20709998 2.690726,3.5676 3.433605,4.0937 h 4.182977 v -0.5313 c -0.916687,-0.0306 -1.699422,-0.288 -2.372378,-0.78120002 -0.670859,-0.4955 -1.596136,-1.53689998 -2.77823,-3.12499998 -1.450896,-1.9622 -2.530603,-3.0923 -3.183981,-3.4063 1.450897,-0.1771 2.561569,-0.6174 3.308843,-1.3437 0.749472,-0.7262 1.123759,-1.6281 1.123759,-2.6563002 0,-0.8804 -0.297172,-1.6167 -0.874035,-2.25 -0.576862,-0.6354 -1.314547,-1.096 -2.247516,-1.375 -0.935266,-0.2778 -2.160911,-0.4062 -3.652263,-0.4062 z m 37.364905,0 -4.588728,10.8438002 c -0.328837,0.7809 -0.510436,1.2289 -0.561879,1.3437 -0.480669,1.23049998 -0.906599,2.05579998 -1.248621,2.43749998 -0.341922,0.38280002 -0.83248,0.61050002 -1.529509,0.71880002 v 0.5312 h 4.713591 v -0.5313 c -0.510237,0 -0.929673,-0.0998 -1.248621,-0.3437 -0.320146,-0.244 -0.468282,-0.62230002 -0.468282,-1.09380002 0,-0.4407 0.303265,-1.36759998 0.905299,-2.81239998 l 0.405752,-1 h 5.930945 l 1.186189,2.9062 c 0.354009,0.84219998 0.56188,1.36169998 0.56188,1.53129998 0,0.33140002 -0.139247,0.54460002 -0.405852,0.65620002 -0.265407,0.1116 -0.775643,0.1563 -1.52951,0.1563 v 0.5312 h 6.149504 v -0.5313 c -0.547395,-0.0546 -0.944356,-0.1617 -1.217454,-0.375 -0.273099,-0.211 -0.494953,-0.50530002 -0.655576,-0.87500002 L 79.777424,-1.9786578 74.564385,-14.416158 Z m 58.310558,0.1563 v 0.5312 h 0.31216 c 0.79971,0 1.29247,0.081 1.52961,0.2188 0.23593,0.1389 0.39716,0.3868 0.46818,0.75 0.0743,0.362 0.12486,1.1582 0.12486,2.4062 v 7.6875002 c 0,1.3125 -0.0505,2.17139998 -0.12486,2.53129998 -0.071,0.35870002 -0.24054,0.61280002 -0.49945,0.78120002 -0.26001,0.1695 -0.72949,0.25 -1.40475,0.25 h -0.40575 v 0.5313 h 7.11713 v -0.5313 h -0.40585 c -0.71011,0 -1.21366,-0.0964 -1.46708,-0.2813 -0.25342,-0.1859 -0.40705,-0.46200002 -0.46828,-0.84370002 -0.0622,-0.3828 -0.0936,-1.19939998 -0.0936,-2.43749998 v -3.7813 h 8.17846 v 3.7813 c 0,1.3147 -0.0238,2.14019998 -0.0936,2.49999998 -0.0688,0.3598 -0.24493,0.64190002 -0.49945,0.81250002 -0.25671,0.1695 -0.71581,0.25 -1.37348,0.25 h -0.53071 v 0.5313 h 7.08597 v -0.5313 h -0.34342 c -0.69923,0 -1.1813,-0.0964 -1.43592,-0.2813 -0.25352,-0.1848 -0.41034,-0.46200002 -0.46828,-0.84370002 -0.0589,-0.3817 -0.0936,-1.20269998 -0.0936,-2.43749998 v -7.6875002 c 0,-1.3016 0.0452,-2.122 0.12487,-2.4688 0.0819,-0.3467 0.23114,-0.593 0.46828,-0.7187 0.23923,-0.128 0.76036,-0.1875 1.52961,-0.1875 h 0.21846 v -0.5313 h -7.08597 v 0.5313 h 0.40585 c 0.78763,0 1.29577,0.081 1.52951,0.2188 0.23374,0.1389 0.39936,0.3868 0.46828,0.75 0.0699,0.362 0.0936,1.1582 0.0936,2.4062 v 3.1250002 h -8.17846 v -3.1250002 c 0,-1.3016 0.0429,-2.122 0.12486,-2.4688 0.0819,-0.3467 0.25681,-0.593 0.49945,-0.7187 0.24143,-0.128 0.72589,-0.1875 1.49834,-0.1875 h 0.31215 v -0.5313 z m 50.56911,0 v 0.5312 c 0.76146,0 1.26021,0.0678 1.49835,0.2188 0.23714,0.1487 0.40265,0.4039 0.46828,0.7812 0.0677,0.3773 0.0936,1.1806 0.0936,2.375 v 7.6875002 c 0,1.3114 -0.0325,2.14829998 -0.0936,2.46879998 -0.0622,0.3193 -0.21087,0.57230002 -0.43702,0.78120002 -0.22615,0.2078 -0.69583,0.3125 -1.46718,0.3125 h -0.34342 v 0.5313 h 12.92322 l 0.34342,-4.875 h -0.53071 c -0.27749,1.1746 -0.67526,2.0915 -1.15492,2.74999998 -0.47967,0.6606 -0.97063,1.08980002 -1.49835,1.28120002 -0.53201,0.1914 -1.20637,0.2813 -2.02906,0.2813 h -1.15492 c -1.04664,0 -1.69613,-0.173 -1.93536,-0.5 -0.23814,-0.32700002 -0.34342,-1.4241 -0.34342,-3.2813 v -3.7188 h 1.68564 c 0.66646,0 1.15512,0.0666 1.43591,0.1563 0.27969,0.0886 0.47907,0.266 0.62431,0.5625 0.14534,0.2986 0.21856,0.8794 0.21856,1.75 h 0.53071 v -5.3438 h -0.53071 c 0,0.769 -0.0599,1.2979 -0.15613,1.5626 -0.0961,0.2657 -0.29268,0.4625 -0.59305,0.5937 -0.30156,0.1313 -0.83487,0.1875 -1.59204,0.1875 h -1.6232 v -6.5625002 h 2.15392 c 1.086,0 1.85065,0.0683 2.34121,0.1875 0.48946,0.1203 0.92358,0.3866 1.27979,0.8438 0.354,0.4582 0.66057,1.251 0.9053,2.3437 h 0.53061 l -0.37459,-3.9063 z m -98.578552,0.0312 v 0.5313 c 0.845665,0 1.378476,0.0715 1.623206,0.1874 0.244729,0.116 0.418138,0.3733 0.530713,0.7813 0.112476,0.408 0.187293,1.202 0.187293,2.4063 v 8.3437002 c 0,0.9483 -0.05274,1.52639998 -0.124862,1.78129998 -0.07322,0.2537 -0.295673,0.49780002 -0.686741,0.71870002 -0.390069,0.221 -0.943856,0.3516 -1.685637,0.4063 v 0.5312 h 5.806084 v -0.5313 c -0.828185,0 -1.427723,-0.1042 -1.841765,-0.3437 -0.414042,-0.2384 -0.690836,-0.49470002 -0.780437,-0.78130002 -0.0885,-0.2854 -0.124862,-0.87889998 -0.124862,-1.78119998 V -12.884958 L 98.444294,1.8338422 h 0.468282 V -11.166158 c 0,-0.6716 0.05334,-1.124 0.156028,-1.4063 0.102686,-0.281 0.342122,-0.5498 0.718006,-0.75 0.37798,-0.2001 0.9052,-0.3203 1.56078,-0.375 v -0.5312 h -5.650061 v 0.5313 c 0.616219,0 1.12276,0.088 1.560776,0.25 0.439214,0.1618 0.731991,0.3795 0.874034,0.6562 0.142043,0.279 0.218558,0.7753 0.218558,1.4688 v 9.3750002 L 89.079643,-14.228658 Z m -64.116641,0.2813 c 1.908691,0 3.36608,0.6682 4.37017,1.9687 1.004091,1.3005 1.498345,3.1536002 1.498345,5.5938002 0,2.509 -0.511335,4.3896 -1.52961,5.65619998 C 23.59921,0.5379422 22.22373,1.1776422 20.46797,1.1776422 c -2.002587,0 -3.494238,-0.6397 -4.495032,-1.90630002 -1.000794,-1.26659998 -1.498344,-3.13189998 -1.498344,-5.65629998 0,-2.486 0.49755,-4.3864002 1.498344,-5.6562002 1.000794,-1.2698 2.427517,-1.9062 4.307739,-1.9063 z m 240.671523,0 c 1.90869,0 3.36608,0.6682 4.37017,1.9687 1.00619,1.3005 1.49834,3.1536002 1.49834,5.5938002 0,2.509 -0.51133,4.3896 -1.52961,5.65619998 -1.02037,1.26660002 -2.39695,1.90630002 -4.15161,1.90630002 -2.00259,0 -3.5255,-0.6397 -4.5263,-1.90630002 -1.00069,-1.26659998 -1.49834,-3.13189998 -1.49834,-5.65629998 0,-2.486 0.49765,-4.3864002 1.49834,-5.6562002 1.0009,-1.2698 2.45878,-1.9062 4.33901,-1.9063 z m -224.345865,0.0937 c 1.823484,0 3.014568,0.336 3.558667,1 0.5429,0.664 0.811503,1.5527 0.811503,2.6563 0,0.6343002 -0.0901,1.1606002 -0.249724,1.5937002 -0.160523,0.432 -0.377982,0.7967 -0.655476,1.0625 -0.277493,0.2669 -0.643489,0.456 -1.092592,0.5938 -0.447905,0.1389 -0.983413,0.2182 -1.591941,0.25 -0.608527,0.0306 -1.177698,0.0482 -1.748068,0.0624 v -7.1874002 c 0.364897,-0.0318 0.685842,-0.0313 0.967731,-0.0313 z m 122.083875,2.2813 2.74697,6.6250002 h -5.46277 z m -85.249583,0.0312 2.746964,6.6563002 h -5.493928 z m 135.881133,1.6563002 c 1.59404,2.0846 3.50772,4.794 5.71248,8.1562 -1.24222,1.44699998 -2.59623,2.1875 -4.05801,2.1875 -1.31655,0 -2.51632,-0.56920002 -3.55857,-1.7188 -1.04235,-1.1484 -1.56077,-2.3957 -1.56077,-3.6874 0,-0.8379 0.30106,-1.6958 0.9052,-2.5938 0.60093,-0.898 1.46058,-1.6722 2.55967,-2.3438 z m 63.21144,8.3437 c -0.47088,0 -0.88203,0.1631 -1.21746,0.5 -0.33762,0.33689998 -0.49944,0.74839998 -0.49944,1.21879998 0,0.46150002 0.16841,0.87090002 0.49944,1.21870002 0.32994,0.3478 0.73779,0.5 1.21746,0.5 0.47088,0 0.87543,-0.1642 1.21735,-0.5 0.34192,-0.338 0.49945,-0.7375 0.49945,-1.21880002 0,-0.4703 -0.16402,-0.8818 -0.49945,-1.21869998 -0.33862,-0.3369 -0.73558,-0.5 -1.21745,-0.5 z"
     id="path1"
     style="fill:#b5b5b5;fill-opacity:1;stroke-width:0.999408;stroke-dasharray:none" />
  <path
     fill="none"
     d="m -69.875,-145.125 h 360 v 45 h -360 z"
     id="path2" />
</svg>
